<?xml version="1.0" standalone="no"?>
<!DOCTYPE svg PUBLIC "-//W3C//DTD SVG 20010904//EN"
 "http://www.w3.org/TR/2001/REC-SVG-20010904/DTD/svg10.dtd">
<svg version="1.0" xmlns="http://www.w3.org/2000/svg"
 width="512.000000pt" height="512.000000pt" viewBox="0 0 512.000000 512.000000"
 preserveAspectRatio="xMidYMid meet">
<metadata>
Created by potrace 1.14, written by Peter Selinger 2001-2017
</metadata>
<g transform="translate(0.000000,512.000000) scale(0.100000,-0.100000)"
fill="#000000" stroke="none">
<path d="M2176 5109 c-293 -49 -538 -277 -618 -574 -19 -73 -21 -109 -24 -420
-1 -187 -3 -345 -3 -351 -1 -6 -24 -14 -51 -17 -95 -11 -199 -87 -245 -178
-110 -215 37 -479 275 -494 21 -1 26 -7 33 -46 15 -82 50 -214 68 -256 l18
-43 -37 -1 c-223 -3 -450 -100 -625 -268 -177 -169 -275 -399 -282 -656 l-2
-70 -94 -95 c-96 -97 -163 -188 -216 -295 -30 -60 -77 -187 -87 -235 -3 -14
-7 -34 -9 -45 -16 -73 -20 -193 -22 -602 l-2 -463 2307 0 2307 0 -2 483 c-3
445 -4 490 -24 583 -49 235 -144 410 -318 583 l-85 83 -4 87 c-5 116 -8 133
-33 226 -24 86 -80 205 -132 282 -100 146 -272 280 -442 343 -50 19 -228 62
-244 59 -5 -1 -26 -1 -48 0 l-41 1 33 100 c18 56 35 113 37 128 2 15 7 46 11
70 4 26 12 42 21 42 18 0 15 -1 74 15 96 25 193 110 229 200 79 202 -53 435
-262 463 -23 3 -45 9 -48 13 -4 7 -4 451 0 494 1 7 119 10 339 10 l337 0 3 88
3 87 -341 0 c-188 0 -344 1 -348 4 -4 2 -9 18 -10 35 -4 58 -51 186 -96 261
-79 135 -221 260 -360 318 -134 55 -180 60 -550 60 -188 0 -363 -4 -390 -9z"/>
</g>
</svg>
